<svg width="47" height="94" viewBox="0 0 47 94" fill="none" xmlns="http://www.w3.org/2000/svg">
<path d="M46.2081 49.76C46.2081 52.768 45.4401 55.648 43.9041 58.4C42.4321 61.088 40.2241 63.36 37.2801 65.216C34.4001 67.072 30.9441 68.192 26.9121 68.576V74.048C30.6881 73.984 33.6961 74.784 35.9361 76.448C38.1761 78.112 39.2961 80.48 39.2961 83.552C39.2961 86.56 38.2081 88.96 36.0321 90.752C33.8561 92.544 31.0401 93.44 27.5841 93.44H16.5441V87.776H25.8561C27.9681 87.776 29.5041 87.456 30.4641 86.816C31.4881 86.176 32.0001 85.088 32.0001 83.552C32.0001 82.08 31.4881 81.024 30.4641 80.384C29.5041 79.744 27.9681 79.424 25.8561 79.424H21.0561V68.576C15.0401 68.064 10.1761 66.144 6.46413 62.816C2.75213 59.488 0.864125 55.264 0.800125 50.144H10.1121C10.4321 53.28 11.7121 55.936 13.9521 58.112C16.2561 60.224 19.5841 61.28 23.9361 61.28C28.0961 61.28 31.3601 60.256 33.7281 58.208C36.1601 56.096 37.3761 53.408 37.3761 50.144C37.3761 47.584 36.6721 45.504 35.2641 43.904C33.8561 42.304 32.0961 41.088 29.9841 40.256C27.8721 39.424 25.0241 38.528 21.4401 37.568C17.0241 36.416 13.4721 35.264 10.7841 34.112C8.16013 32.96 5.88813 31.168 3.96813 28.736C2.11213 26.24 1.18413 22.912 1.18413 18.752C1.18413 15.104 2.11213 11.872 3.96813 9.056C5.82413 6.24 8.41613 4.064 11.7441 2.528C15.1361 0.991997 19.0081 0.223997 23.3601 0.223997C29.6321 0.223997 34.7521 1.792 38.7201 4.928C42.7521 8.064 45.0241 12.224 45.5361 17.408H35.9361C35.6161 14.848 34.2721 12.608 31.9041 10.688C29.5361 8.704 26.4001 7.712 22.4961 7.712C18.8481 7.712 15.8721 8.672 13.5681 10.592C11.2641 12.448 10.1121 15.072 10.1121 18.464C10.1121 20.896 10.7841 22.88 12.1281 24.416C13.5361 25.952 15.2321 27.136 17.2161 27.968C19.2641 28.736 22.1121 29.632 25.7601 30.656C30.1761 31.872 33.7281 33.088 36.4161 34.304C39.1041 35.456 41.4081 37.28 43.3281 39.776C45.2481 42.208 46.2081 45.536 46.2081 49.76Z" fill="#0CACE3"/>
</svg>
